<?xml version="1.0" encoding="utf-8"?>
<!-- Generator: Adobe Illustrator 19.1.0, SVG Export Plug-In . SVG Version: 6.00 Build 0)  -->
<svg version="1.1" id="Слой_1" xmlns="http://www.w3.org/2000/svg" xmlns:xlink="http://www.w3.org/1999/xlink" x="0px" y="0px"
	 viewBox="0 0 15.1 18" style="enable-background:new 0 0 15.1 18;" xml:space="preserve">
<style type="text/css">
	.st0{fill:#0097A6;}
</style>
<g>
	<path class="st0" d="M7.6,18l-0.4-0.2C6.9,17.6,0,13.6,0,7.5C0,3.4,3.4,0,7.6,0s7.6,3.4,7.6,7.5c0,5.7-6.9,10-7.2,10.2L7.6,18z
		 M7.6,1.5c-3.3,0-6.1,2.7-6.1,6c0,4.5,4.6,7.8,6,8.7c1.4-1,6.1-4.5,6.1-8.7C13.6,4.2,10.9,1.5,7.6,1.5z M7.6,10.9
		c-1.9,0-3.4-1.5-3.4-3.4c0-1.9,1.5-3.4,3.4-3.4S11,5.6,11,7.5C11,9.4,9.5,10.9,7.6,10.9z M7.6,5.6c-1.1,0-1.9,0.9-1.9,1.9
		c0,1.1,0.9,1.9,1.9,1.9s1.9-0.9,1.9-1.9C9.5,6.4,8.6,5.6,7.6,5.6z"/>
</g>
</svg>
