<?xml version="1.0" standalone="no"?>
<!DOCTYPE svg PUBLIC "-//W3C//DTD SVG 20010904//EN"
 "http://www.w3.org/TR/2001/REC-SVG-20010904/DTD/svg10.dtd">
<svg version="1.0" xmlns="http://www.w3.org/2000/svg"
 width="70.000000pt" height="59.000000pt" viewBox="0 0 70.000000 59.000000"
 preserveAspectRatio="xMidYMid meet">

<g transform="translate(0.000000,59.000000) scale(0.100000,-0.100000)"
fill="#000000" stroke="none">
<path d="M7 584 c-4 -4 -7 -20 -7 -35 0 -36 24 -49 92 -49 67 0 91 16 86 55
l-3 30 -80 3 c-45 1 -84 0 -88 -4z"/>
<path d="M282 578 c-17 -17 -15 -43 4 -62 13 -13 46 -16 203 -16 206 0 215 3
209 57 l-3 28 -200 3 c-148 2 -204 -1 -213 -10z"/>
<path d="M11 336 c-7 -8 -11 -27 -9 -43 3 -28 4 -28 76 -31 46 -2 79 2 88 9
17 14 18 51 2 67 -18 18 -142 16 -157 -2z"/>
<path d="M286 334 c-20 -19 -21 -48 -2 -63 9 -8 74 -11 212 -9 l199 3 3 34 c2
20 -2 37 -10 42 -7 5 -97 9 -200 9 -156 0 -189 -3 -202 -16z"/>
<path d="M13 83 c-16 -6 -17 -55 -1 -71 16 -16 140 -16 156 0 15 15 15 51 0
66 -12 12 -130 16 -155 5z"/>
<path d="M280 75 c-10 -12 -11 -24 -4 -43 l9 -27 185 -3 c230 -3 232 -3 228
46 l-3 37 -201 3 c-173 2 -203 0 -214 -13z"/>
</g>
</svg>
