<?xml version="1.0" encoding="utf-8"?>
<!-- Generator: Adobe Illustrator 19.1.0, SVG Export Plug-In . SVG Version: 6.00 Build 0)  -->
<svg version="1.1" id="Слой_1" xmlns="http://www.w3.org/2000/svg" xmlns:xlink="http://www.w3.org/1999/xlink" x="0px" y="0px"
	 viewBox="0 0 19 19" style="enable-background:new 0 0 19 19;" xml:space="preserve">
<style type="text/css">
	.st0{fill:#131515;}
</style>
<g>
	<g>
		<path class="st0" d="M15.6,3.4C14,1.9,11.8,0.9,9.5,0.9C7.2,0.9,5,1.9,3.4,3.4C1.9,5,0.9,7.2,0.9,9.5s1,4.5,2.5,6.1
			C5,17.1,7.2,18,9.5,18c2.3,0,4.5-0.9,6.1-2.5C17.1,14,18,11.8,18,9.5S17.1,5,15.6,3.4 M9.5,0c2.6,0,5,1.1,6.7,2.8
			C18,4.5,19,6.9,19,9.5s-1,5-2.8,6.7C14.5,18,12.1,19,9.5,19s-5-1-6.7-2.8C1.1,14.4,0,12.1,0,9.5s1.1-5,2.8-6.7
			C4.5,1.1,6.9,0,9.5,0"/>
	</g>
	<g>
		<path class="st0" d="M9.3,6L7.6,6.5L7.3,5.7l2.2-0.8h0.7V14h-1V6z"/>
	</g>
</g>
</svg>
