<?xml version="1.0" encoding="utf-8"?>
<!-- Generator: Adobe Illustrator 19.1.0, SVG Export Plug-In . SVG Version: 6.00 Build 0)  -->
<svg version="1.1" id="Слой_1" xmlns="http://www.w3.org/2000/svg" xmlns:xlink="http://www.w3.org/1999/xlink" x="0px" y="0px"
	 viewBox="0 0 16.9 14.1" style="enable-background:new 0 0 16.9 14.1;" xml:space="preserve">
<style type="text/css">
	.st0{fill:#0097A6;}
</style>
<g>
	<path class="st0" d="M15.9,14.1H7.6c-0.6,0-1-0.4-1-1s0.4-1,1-1h8.3c0.6,0,1,0.4,1,1S16.4,14.1,15.9,14.1z M3.3,14.1H1
		c-0.6,0-1-0.4-1-1s0.4-1,1-1h2.3c0.6,0,1,0.4,1,1S3.8,14.1,3.3,14.1z M15.9,7.9H7.6c-0.6,0-1-0.4-1-1s0.4-1,1-1h8.3
		c0.6,0,1,0.4,1,1S16.4,7.9,15.9,7.9z M3.3,7.9H1c-0.6,0-1-0.4-1-1s0.4-1,1-1h2.3c0.6,0,1,0.4,1,1S3.8,7.9,3.3,7.9z M15.9,2H7.6
		c-0.6,0-1-0.4-1-1s0.4-1,1-1h8.3c0.6,0,1,0.4,1,1S16.4,2,15.9,2z M3.3,2H1C0.4,2,0,1.6,0,1s0.4-1,1-1h2.3c0.6,0,1,0.4,1,1
		S3.8,2,3.3,2z"/>
</g>
</svg>
