<?xml version="1.0" standalone="no"?>
<!DOCTYPE svg PUBLIC "-//W3C//DTD SVG 20010904//EN"
 "http://www.w3.org/TR/2001/REC-SVG-20010904/DTD/svg10.dtd">
<svg version="1.0" xmlns="http://www.w3.org/2000/svg"
 width="63.000000pt" height="75.000000pt" viewBox="0 0 63.000000 75.000000"
 preserveAspectRatio="xMidYMid meet">

<g transform="translate(0.000000,75.000000) scale(0.100000,-0.100000)"
fill="#000000" stroke="none">
<path d="M214 740 c-88 -27 -181 -123 -205 -213 -18 -68 -7 -186 25 -250 37
-76 95 -147 170 -206 100 -80 106 -81 172 -36 79 55 178 166 216 244 30 60 33
74 33 161 0 79 -4 102 -23 137 -33 63 -75 106 -134 138 -45 25 -66 29 -138 32
-47 1 -99 -2 -116 -7z m190 -74 c49 -20 112 -81 135 -130 25 -51 27 -124 6
-187 -21 -61 -93 -154 -166 -216 -73 -61 -68 -62 -169 34 -125 118 -171 258
-121 368 20 45 87 110 135 131 41 17 138 18 180 0z"/>
<path d="M233 560 c-47 -28 -66 -72 -61 -137 11 -133 163 -180 257 -79 18 19
26 41 29 79 8 97 -46 157 -143 157 -32 0 -62 -7 -82 -20z m134 -72 c14 -13 23
-33 23 -50 0 -36 -40 -78 -75 -78 -14 0 -37 11 -50 25 -70 69 30 170 102 103z"/>
</g>
</svg>
