<?xml version="1.0" encoding="utf-8"?>
<!-- Generator: Adobe Illustrator 19.1.0, SVG Export Plug-In . SVG Version: 6.00 Build 0)  -->
<svg version="1.1" id="Слой_1" xmlns="http://www.w3.org/2000/svg" xmlns:xlink="http://www.w3.org/1999/xlink" x="0px" y="0px"
	 viewBox="0 0 19 19" style="enable-background:new 0 0 19 19;" xml:space="preserve">
<style type="text/css">
	.st0{fill:#131515;}
</style>
<g>
	<path class="st0" d="M15.6,3.4C14,1.9,11.8,1,9.5,1S5,1.9,3.4,3.4C1.9,5,0.9,7.2,0.9,9.5s1,4.5,2.5,6.1C5,17.1,7.2,18,9.5,18
		s4.5-0.9,6.1-2.5C17.1,14,18,11.8,18,9.5S17.1,5,15.6,3.4 M9.5,0c2.6,0,5,1.1,6.7,2.8C18,4.5,19,6.9,19,9.5s-1,5-2.8,6.7
		C14.5,18,12.1,19,9.5,19s-5-1-6.7-2.8C1.1,14.5,0,12.1,0,9.5s1.1-5,2.8-6.7C4.5,1.1,6.9,0,9.5,0"/>
</g>
<g>
	<path class="st0" d="M6.3,12.6L7,11.9c0.7,0.8,1.5,1.3,2.6,1.3c1.1,0,2-0.7,2-1.8c0-1.1-1-1.7-2.5-1.7H8.5L8.3,9.1l2.8-3.2H6.7V5
		h5.8v0.7L9.7,8.9c1.6,0.1,3,0.9,3,2.6c0,1.6-1.3,2.7-3,2.7C8.1,14.2,7,13.5,6.3,12.6z"/>
</g>
</svg>
