<?xml version="1.0" encoding="utf-8"?>
<!-- Generator: Adobe Illustrator 19.1.0, SVG Export Plug-In . SVG Version: 6.00 Build 0)  -->
<svg version="1.1" id="Слой_1" xmlns="http://www.w3.org/2000/svg" xmlns:xlink="http://www.w3.org/1999/xlink" x="0px" y="0px"
	 viewBox="0 0 19 19" style="enable-background:new 0 0 19 19;" xml:space="preserve">
<style type="text/css">
	.st0{fill:#131515;}
</style>
<g>
	<path class="st0" d="M15.6,3.4C14,1.9,11.8,0.9,9.5,0.9S5,1.9,3.4,3.4C1.9,5,1,7.1,1,9.5s1,4.5,2.5,6.1C5,17.1,7.2,18,9.5,18
		s4.5-0.9,6.1-2.5c1.5-1.5,2.5-3.7,2.5-6.1S17.1,5,15.6,3.4 M9.5,0c2.6,0,5,1.1,6.7,2.8C18,4.5,19,6.8,19,9.5s-1,5-2.8,6.7
		c-1.8,1.8-4.1,2.8-6.7,2.8s-5-1-6.7-2.8C1.1,14.4,0,12.1,0,9.5s1.1-5,2.8-6.7C4.5,1.1,6.9,0,9.5,0"/>
	<g>
		<path class="st0" d="M6.4,13.2l3.3-2.9c1.4-1.2,1.9-1.9,1.9-2.8c0-1.1-0.8-1.7-1.8-1.7c-1,0-1.7,0.5-2.4,1.5L6.5,6.8
			c0.8-1.2,1.7-1.9,3.2-1.9c1.6,0,2.8,1.1,2.8,2.6c0,1.3-0.7,2.1-2.3,3.5l-2.4,2.1h4.8V14H6.4V13.2z"/>
	</g>
</g>
</svg>
